<svg xmlns="http://www.w3.org/2000/svg" version="1.1" xmlns:xlink="http://www.w3.org/1999/xlink" xmlns:svgjs="http://svgjs.com/svgjs" width="512" height="512" x="0" y="0" viewBox="0 0 512 512" style="enable-background:new 0 0 512 512" xml:space="preserve" class=""><g><path d="m510.494 291.756-4.339.76a95.349 95.349 0 0 0-11.414-31.338l3.815-2.207a100.684 100.684 0 0 0-22.383-26.678l-2.843 3.377a96.07 96.07 0 0 0-28.812-16.729l1.514-4.134c-10.996-4.026-22.548-6.074-34.333-6.086l-.005 4.404-.102-.001a95.846 95.846 0 0 0-24.298 3.118l-36.684-83.779h39.057v-30h-62l-13.74 21.017 10.855 24.791-110.219 40.688-9.98-26.83H220v-30h-57.787l-12.939-12.939-21.213 21.213 21.727 21.727h22.789l15.126 40.662-26.827 26.233a99.994 99.994 0 0 0-26.221-14.288l-1.506 4.139a95.574 95.574 0 0 0-32.739-5.751l-.103.001-.005-4.404c-11.785.012-23.337 2.06-34.333 6.086l1.514 4.135a96.065 96.065 0 0 0-28.811 16.729l-2.843-3.378a100.703 100.703 0 0 0-22.383 26.678l3.816 2.208a95.32 95.32 0 0 0-11.414 31.337l-4.34-.761A100.718 100.718 0 0 0 0 309.132c.001 5.859.514 11.735 1.523 17.462l4.338-.764a95.34 95.34 0 0 0 11.443 31.322l-3.813 2.211a100.721 100.721 0 0 0 22.403 26.656l2.839-3.379a96.042 96.042 0 0 0 28.837 16.707l-1.51 4.137c11.003 4.016 22.56 6.052 34.348 6.052h.184v-4.405c11.532-.021 22.593-2.085 32.84-5.85l1.518 4.133a100.161 100.161 0 0 0 30.12-17.518l-2.846-3.374a96.686 96.686 0 0 0 21.385-25.531l3.814 2.202a99.529 99.529 0 0 0 10.753-27.238l39.302 3.127 27.497-10.599-4.089-10.991 81.455-125.119 15.698 35.851a101.068 101.068 0 0 0-10.879 7.945l2.835 3.382a96.714 96.714 0 0 0-21.456 25.466l-3.811-2.215a99.568 99.568 0 0 0-12.003 32.755l4.335.769a96.253 96.253 0 0 0-1.474 16.804c0 5.629.492 11.144 1.425 16.51l-4.34.756a99.564 99.564 0 0 0 11.904 32.798l3.815-2.202a96.705 96.705 0 0 0 21.385 25.531l-2.846 3.374a100.161 100.161 0 0 0 30.12 17.518l1.519-4.133c10.247 3.766 21.308 5.829 32.84 5.85v4.405h.183c11.788 0 23.345-2.036 34.348-6.052l-1.51-4.137a96.042 96.042 0 0 0 28.837-16.707l2.839 3.378a100.705 100.705 0 0 0 22.403-26.656l-3.812-2.211a95.317 95.317 0 0 0 11.443-31.322l4.339.764a101.033 101.033 0 0 0 .016-34.838zm-410.086 83.378c-36.396 0-66.005-29.61-66.005-66.005s29.609-66.005 66.005-66.005c13.039 0 25.196 3.816 35.444 10.367l-45.931 44.913 9.298 25.677 64.071 5.098c-8.508 26.621-33.475 45.955-62.882 45.955zm34.072-78.343 22.362-21.866a65.553 65.553 0 0 1 8.833 24.348l-31.195-2.482zm61.648 4.905a95.66 95.66 0 0 0-1.189-9.372l4.334-.769A99.568 99.568 0 0 0 187.27 258.8l-3.81 2.215a96.246 96.246 0 0 0-4.79-7.436l20.476-20.022 26.211 70.465-29.229-2.326zm51.743-23.196-22.848-61.424 82.714-30.535-59.866 91.959zm163.722 96.634c-36.396 0-66.005-29.61-66.005-66.005 0-21.589 10.419-40.789 26.493-52.84l31.788 72.596 27.48-12.033-31.793-72.609a66.056 66.056 0 0 1 12.037-1.119c36.396 0 66.005 29.61 66.005 66.005s-29.609 66.005-66.005 66.005z" fill="#000000" data-original="#000000" class=""></path></g></svg>