<svg xmlns="http://www.w3.org/2000/svg" version="1.1" xmlns:xlink="http://www.w3.org/1999/xlink" xmlns:svgjs="http://svgjs.com/svgjs" width="512" height="512" x="0" y="0" viewBox="0 0 63.999 63.999" style="enable-background:new 0 0 512 512" xml:space="preserve" class=""><g><path d="M52 27.164c-1.385 0-2.709.248-3.949.682L44 20.485v-2.986h4.457a1.168 1.168 0 1 1 0 2.334 2 2 0 0 0 0 4 5.173 5.173 0 0 0 5.168-5.168c0-2.52-1.816-4.617-4.207-5.068a1.94 1.94 0 0 0-.586-.098H42a2 2 0 0 0-2 2v3.5H25.145l-.973-2.166h3.16a2 2 0 0 0 0-4h-12.5a2 2 0 0 0 0 4h4.955l1.123 2.502c-.27.176-.502.408-.662.699l-4.301 7.813A11.901 11.901 0 0 0 12 27.165c-6.617 0-12 5.383-12 12s5.383 12 12 12c5.934 0 10.863-4.334 11.818-10h8.176l.006.002c.086 0 .174-.016.26-.027.049-.006.1-.006.146-.016.023-.006.047-.016.07-.021.039-.01.076-.025.117-.037.068-.021.139-.039.205-.068.006-.004.014-.004.02-.006.041-.02.074-.045.113-.066.037-.02.076-.039.113-.061.031-.02.064-.037.096-.059.055-.039.104-.084.152-.127.041-.035.086-.064.125-.104.006-.006.012-.016.02-.023.047-.049.086-.102.127-.154.037-.049.078-.094.111-.145l.053-.092c.006-.012.016-.02.023-.031l8.248-14.984 2.549 4.631c-2.768 2.199-4.549 5.588-4.549 9.389 0 6.617 5.383 12 12 12s12-5.383 12-12S58.617 27.164 52 27.164zm-13.384-4.166-6.434 11.688-5.242-11.688h11.676zm-15.78.627 6.074 13.539h-5.092a11.987 11.987 0 0 0-4.367-7.389l3.385-6.15zm-3.099 13.539h-4.354l2.098-3.811a7.999 7.999 0 0 1 2.256 3.811zm-7.737 10c-4.412 0-8-3.588-8-8 0-4.41 3.588-8 8-8 .684 0 1.344.096 1.979.258l-3.73 6.777c-.016.029-.023.061-.039.09a1.603 1.603 0 0 0-.082.195 1.746 1.746 0 0 0-.096.372c-.012.072-.02.143-.021.215-.002.031-.01.063-.01.094 0 .029.006.057.008.084a2.213 2.213 0 0 0 .056.397c.016.063.035.123.057.184.021.063.045.123.072.182s.059.113.092.17c.031.055.064.107.102.158a2.062 2.062 0 0 0 .578.529c.023.016.045.035.07.049.029.016.059.023.088.039.064.031.129.059.195.082a1.873 1.873 0 0 0 .367.096c.076.012.15.02.227.023.029 0 .057.008.088.008h7.736c-.893 3.443-4.018 5.998-7.737 5.998zm40 0c-4.412 0-8-3.588-8-8 0-2.289.971-4.352 2.518-5.811l3.73 6.775a1.995 1.995 0 0 0 2.717.787 2 2 0 0 0 .787-2.717l-3.73-6.777a7.97 7.97 0 0 1 1.979-.258c4.41 0 8 3.59 8 8C60 43.576 56.41 47.164 52 47.164z" style="" fill="#010002" data-original="#010002" class=""></path></g></svg>