<svg width="25" height="25" viewBox="0 0 25 25" fill="none" xmlns="http://www.w3.org/2000/svg">
<path d="M7.14171 20.9988C6.55012 21.4538 5.81889 21.7354 5.01653 21.7354C3.08294 21.7354 1.50953 20.162 1.50953 18.2284C1.50953 16.2944 3.08294 14.7209 5.01653 14.7209C6.47587 14.7209 7.72746 15.6182 8.25517 16.8889L9.35338 15.7499C8.48855 14.2404 6.8808 13.2114 5.01653 13.2114C2.24554 13.2114 0 15.4575 0 18.2284C0 20.9988 2.24554 23.2449 5.01653 23.2449C6.32022 23.2449 7.49651 22.7354 8.38882 21.9197C8.04636 21.8047 7.72152 21.6224 7.44395 21.3551C7.32943 21.2444 7.23061 21.1236 7.14171 20.9988Z" fill="url(#paint0_linear_104_798)"/>
<path d="M14.759 13.2499L12.1027 11.707C13.2873 10.9655 12.848 11.2401 14.0327 10.4986L13.9954 10.876C13.9315 11.5183 14.4048 12.1061 15.0008 12.2268C15.015 12.2298 19.664 13.0199 19.8335 13.0199C20.4374 13.0199 20.9706 12.5836 21.0727 11.9679C21.1867 11.2824 20.7234 10.6347 20.0379 10.5213L16.6154 9.95271L16.7781 8.31944C16.9422 7.27575 17.0134 6.9485 16.6237 6.32585L16.1338 5.54262C15.5009 4.5318 14.1664 4.22272 13.1531 4.85709L7.79123 8.21418C6.4743 9.03874 5.83207 10.7773 6.90722 12.0562C7.32725 12.556 11.4111 15.0656 11.4111 15.0656L8.10364 18.4964C7.52479 19.0963 7.542 20.0521 8.14245 20.6305C8.43533 20.9129 8.81272 21.0535 9.19007 21.0535C9.58569 21.0535 9.98075 20.8992 10.2765 20.5916L15.0872 15.6027C15.7659 14.9004 15.6067 13.7422 14.759 13.2499Z" fill="url(#paint1_linear_104_798)"/>
<path d="M20.3944 6.39685C21.5703 5.66029 21.9266 4.11043 21.1904 2.93506C20.4544 1.75867 18.9045 1.40242 17.7287 2.13854C16.5533 2.87465 16.197 4.42395 16.9327 5.59932C17.6686 6.77576 19.2185 7.13251 20.3944 6.39685Z" fill="url(#paint2_linear_104_798)"/>
<path d="M19.9833 13.2114C17.1835 13.2114 14.9668 15.5214 14.9668 18.2284C14.9668 20.9988 17.2124 23.2449 19.9833 23.2449C22.7537 23.2449 24.9999 20.9988 24.9999 18.2284C24.9999 15.4575 22.7537 13.2114 19.9833 13.2114ZM19.9833 21.7354C18.0497 21.7354 16.4763 20.162 16.4763 18.2284C16.4763 16.2944 18.0498 14.7209 19.9833 14.7209C21.917 14.7209 23.4904 16.2944 23.4904 18.2284C23.4904 20.162 21.917 21.7354 19.9833 21.7354Z" fill="url(#paint3_linear_104_798)"/>
<defs>
<linearGradient id="paint0_linear_104_798" x1="4.67669" y1="13.2114" x2="4.67669" y2="23.2449" gradientUnits="userSpaceOnUse">
<stop stop-color="#79FFDB"/>
<stop offset="1" stop-color="#ABFF75"/>
</linearGradient>
<linearGradient id="paint1_linear_104_798" x1="13.7273" y1="4.52734" x2="13.7273" y2="21.0535" gradientUnits="userSpaceOnUse">
<stop stop-color="#79FFDB"/>
<stop offset="1" stop-color="#ABFF75"/>
</linearGradient>
<linearGradient id="paint2_linear_104_798" x1="19.0617" y1="1.75537" x2="19.0617" y2="6.77954" gradientUnits="userSpaceOnUse">
<stop stop-color="#79FFDB"/>
<stop offset="1" stop-color="#ABFF75"/>
</linearGradient>
<linearGradient id="paint3_linear_104_798" x1="19.9834" y1="13.2114" x2="19.9834" y2="23.2449" gradientUnits="userSpaceOnUse">
<stop stop-color="#79FFDB"/>
<stop offset="1" stop-color="#ABFF75"/>
</linearGradient>
</defs>
</svg>
