<?xml version="1.0" standalone="no"?>
<!DOCTYPE svg PUBLIC "-//W3C//DTD SVG 20010904//EN"
 "http://www.w3.org/TR/2001/REC-SVG-20010904/DTD/svg10.dtd">
<svg version="1.0" xmlns="http://www.w3.org/2000/svg"
 width="128.000000pt" height="128.000000pt" viewBox="0 0 128.000000 128.000000"
 preserveAspectRatio="xMidYMid meet">
<metadata>
Created by potrace 1.14, written by Peter Selinger 2001-2017
</metadata>
<g transform="translate(0.000000,128.000000) scale(0.100000,-0.100000)"
fill="#000000" stroke="none">
<path d="M384 1042 c-23 -15 -21 -41 7 -103 34 -77 34 -79 9 -124 -43 -77 -51
-85 -75 -79 -131 33 -269 -41 -311 -168 -40 -122 16 -250 139 -315 48 -25 160
-23 213 5 56 28 103 77 126 129 17 40 22 43 56 43 49 0 54 -5 81 -72 25 -61
31 -67 76 -63 17 2 35 3 41 4 17 1 25 43 12 58 -6 7 -19 13 -30 13 -21 0 -62
82 -55 110 2 9 46 79 97 155 l93 138 12 -29 c11 -27 9 -32 -35 -80 -129 -143
-76 -357 105 -421 48 -17 144 -9 191 15 79 41 132 118 141 206 15 150 -104
280 -257 278 -35 0 -61 4 -63 11 -26 60 -87 211 -87 214 0 7 169 2 174 -5 8
-13 -7 -26 -39 -37 -41 -14 -49 -61 -11 -71 37 -9 74 3 102 33 34 36 32 84 -5
125 l-29 32 -118 2 c-66 1 -129 0 -141 -3 -32 -7 -36 -34 -13 -92 11 -28 16
-51 12 -52 -4 -1 -75 -2 -159 -4 l-152 -2 -14 36 -15 36 58 3 c68 3 85 17 70
56 -9 25 -11 26 -102 26 -51 0 -98 -4 -104 -8z m406 -231 c0 -7 -163 -251
-166 -248 -6 5 -94 236 -94 245 0 6 54 9 130 8 71 0 130 -3 130 -5z m-274
-176 c28 -68 50 -126 47 -128 -2 -2 -14 -2 -27 0 -18 4 -25 15 -35 53 -7 27
-28 66 -48 90 l-36 42 18 34 c10 19 21 34 24 34 3 0 29 -56 57 -125z m-213 19
c-1 -5 -20 -42 -42 -82 -62 -109 -58 -117 73 -126 50 -4 92 -8 94 -10 2 -2 -4
-18 -12 -35 -61 -116 -244 -121 -311 -7 -30 52 -37 100 -20 151 15 43 82 111
118 118 35 8 102 1 100 -9z m792 -3 c73 -34 108 -90 106 -173 -3 -159 -212
-230 -316 -106 -31 37 -49 101 -40 147 7 41 53 113 68 108 6 -2 27 -41 47 -88
30 -71 40 -84 59 -84 46 0 48 26 9 124 l-36 91 31 0 c18 0 50 -9 72 -19z
m-692 -57 c10 -14 22 -38 27 -53 7 -26 6 -28 -19 -25 -14 1 -41 2 -59 3 l-33
1 28 50 c15 27 30 50 33 50 3 0 13 -12 23 -26z"/>
</g>
</svg>
